{"title":"Freezer (2014) DD5.1 NL Subs BR2DVD-NLU002","uid":9465813,"size":4148370486,"categoryP":"video","categoryS":"movies_dvdr","magnet":"?xt=urn:btih:3b9880e5b04add0100c2a09543e9e88277bf826d&amp;dn=Freezer+%282014%29+DD5.1+NL+Subs+BR2DVD-NLU002&amp;tr=udp%3A%2F%2Ftracker.openbittorrent.com%3A80&amp;tr=udp%3A%2F%2Fopen.demonii.com%3A1337&amp;tr=udp%3A%2F%2Ftracker.coppersurfer.tk%3A6969&amp;tr=udp%3A%2F%2Fexodus.desync.com%3A6969","seeders":0,"leechers":1,"uploader":"NLUPPER002","files":-1,"time":1389456327,"description":"Freezer (2014) DD5.1 NL Subs BR2DVD-NLU002\n.\n[IMG]http://imagizer.imageshack.us/v2/800x600q90/32/93ro.jpg[/IMG]\n.\nR  -    -  Action | Thriller  -  17 January 2014 (USA) \nRated R for language and some bloody violence\n. &lt;a href=&quot;\nhttp://www.imdb.com/title/tt2325002/&quot; rel=&quot;nofollow&quot; target=&quot;_NEW&quot;&gt;\nhttp://www.imdb.com/title/tt2325002/&lt;/a&gt;\n. &lt;a href=&quot;\nhttp://www.moviemeter.nl/film/94458&quot; rel=&quot;nofollow&quot; target=&quot;_NEW&quot;&gt;\nhttp://www.moviemeter.nl/film/94458&lt;/a&gt;\n.\nPLOT\n.\nRobert is an ordinary man who is faced with extraordinary circumstances.\nHe is locked in a meat freezer by Russian thugs who believe that he owes them 8 million dollars.\nRobert, who is in ... \n.\nSource: 1080p\nFormat: DVD5\nVideo: NTSC\nAudio: English DD5.1\nSubtitles: Dutch. White and yellow.\nNL Vertaling: JVdS \nNotes vertaling: Niet klagen over de vertaling\nEr is nog geen betere beschikbaar.\nDeze vertaler is een google vertaler, dit zie je al na een paar regels.\nNotes van de Vertaler.\nSorry voor eventuele foutjes maar ze zijn eigenlijk voor mezelf en wat vrienden gemaakt.\nMenu: Yes custom by NLU002\nProgram Used: TMPG Autoring Works 5 \n.\nEnjoy\n.\nOverall bit rate                         : 6 510 Kbps\nWriting library                          : encoded by TMPGEnc Authoring Works 5 Version. 5.1.3.57\n\nVideo\nID                                       : 224 (0xE0)\nFormat                                   : MPEG Video\nFormat version                           : Version 2\nFormat profile                           : Main@Main\nFormat settings, BVOP                    : Yes\nFormat settings, Matrix                  : Custom\nFormat settings, GOP                     : M=3, N=12\nDuration                                 : 21mn 59s\nBit rate mode                            : Variable\nBit rate                                 : 5 932 Kbps\nMaximum bit rate                         : 8 000 Kbps\nWidth                                    : 720 pixels\nHeight                                   : 480 pixels\nDisplay aspect ratio                     : 16:9\nFrame rate                               : 23.976 fps\nStandard                                 : NTSC\nColor space                              : YUV\nChroma subsampling                       : 4:2:0\nBit depth                                : 8 bits\nScan type                                : Progressive\nScan order                               : 2:3 Pulldown\nCompression mode                         : Lossy\nBits/(Pixel*Frame)                       : 0.716\nTime code of first frame                 : 00:00:00:00\nTime code source                         : Group of pictures header\nStream size                              : 933 MiB (91%)\nSource encoded stream size               : encoded by TMPGEnc Authoring Works 5 Version. 5.1.3.57\nWriting library                          : TMPGEnc Authoring Works 5 Version. 5.1.3.57\nColor primaries                          : BT.601 NTSC\nTransfer characteristics                 : BT.601\nMatrix coefficients                      : BT.601\n\nAudio\nID                                       : 189 (0xBD)-128 (0x80)\nFormat                                   : AC-3\nFormat/Info                              : Audio Coding 3\nMode extension                           : CM (complete main)\nFormat settings, Endianness              : Big\nMuxing mode                              : DVD-Video\nDuration                                 : 21mn 59s\nBit rate mode                            : Constant\nBit rate                                 : 448 Kbps\nChannel(s)                               : 6 channels\nChannel positions                        : Front: L C R, Side: L R, LFE\nSampling rate                            : 48.0 KHz\nBit depth                                : 16 bits\nCompression mode                         : Lossy\nStream size                              : 70.4 MiB (7%)\n\n","torrent":{"xt":"urn:btih:3b9880e5b04add0100c2a09543e9e88277bf826d","amp;dn":"Freezer+%282014%29+DD5.1+NL+Subs+BR2DVD-NLU002","amp;tr":["udp%3A%2F%2Ftracker.openbittorrent.com%3A80","udp%3A%2F%2Fopen.demonii.com%3A1337","udp%3A%2F%2Ftracker.coppersurfer.tk%3A6969","udp%3A%2F%2Fexodus.desync.com%3A6969"],"infoHash":"3b9880e5b04add0100c2a09543e9e88277bf826d","infoHashBuffer":{"type":"Buffer","data":[59,152,128,229,176,74,221,1,0,194,160,149,67,233,232,130,119,191,130,109]},"announce":[],"urlList":[]}}